<?xml version="1.0" standalone="no"?>
<!DOCTYPE svg PUBLIC "-//W3C//DTD SVG 20010904//EN"
 "http://www.w3.org/TR/2001/REC-SVG-20010904/DTD/svg10.dtd">
<svg version="1.0" xmlns="http://www.w3.org/2000/svg"
 width="1024.000000pt" height="1024.000000pt" viewBox="0 0 1024.000000 1024.000000"
 preserveAspectRatio="xMidYMid meet">

<g transform="translate(0.000000,1024.000000) scale(0.100000,-0.100000)"
fill="#000000" stroke="none">
<path d="M0 5120 l0 -5120 5120 0 5120 0 0 5120 0 5120 -5120 0 -5120 0 0
-5120z m5140 4324 c36 -12 146 -45 245 -74 99 -28 252 -73 340 -100 88 -28
354 -106 590 -174 436 -127 476 -138 875 -266 229 -73 708 -233 991 -331 l156
-54 7 -417 c5 -229 6 -421 2 -426 -3 -4 -6 -154 -7 -333 l-1 -324 54 -6 c70
-8 100 -30 195 -147 41 -51 85 -99 96 -107 17 -12 57 -15 184 -15 l163 0 16
38 c8 20 43 110 75 198 33 89 66 169 72 177 9 11 47 16 164 20 l151 6 16 -38
c10 -27 17 -94 22 -219 l7 -179 68 -6 c85 -7 102 -16 135 -73 26 -44 27 -53
28 -178 0 -196 -19 -224 -163 -234 -60 -4 -74 -8 -78 -23 -3 -10 -13 -21 -23
-24 -10 -3 -277 -7 -594 -9 -317 -2 -580 -6 -584 -10 -4 -4 -6 -92 -4 -194 4
-268 -20 -432 -123 -842 -81 -322 -108 -416 -149 -510 -35 -82 -41 -85 -110
-56 l-34 14 43 134 c51 160 144 558 187 806 26 154 31 209 35 420 l5 243 -222
-3 -222 -3 -23 -29 c-22 -28 -32 -31 -137 -44 -78 -10 -278 -17 -638 -21
l-525 -7 -72 -37 c-112 -57 -179 -70 -308 -63 -229 13 -405 19 -405 13 0 -11
141 -289 167 -329 99 -154 307 -355 452 -437 94 -53 106 -58 168 -65 45 -5 85
-25 80 -40 -2 -6 -18 -14 -35 -18 -25 -7 -38 -20 -58 -61 -15 -29 -39 -70 -53
-92 -41 -60 -141 -241 -141 -254 0 -6 5 -11 11 -11 5 0 7 -4 4 -10 -7 -11 12
-51 29 -63 6 -4 -18 -6 -54 -5 -55 2 -70 -1 -96 -21 -18 -13 -41 -21 -55 -19
-20 2 -24 8 -22 33 3 34 80 187 177 351 35 60 62 112 60 116 -3 4 -41 29 -85
55 -85 50 -242 177 -321 259 -87 91 -188 238 -248 359 -60 123 -130 314 -130
355 l0 23 288 -8 c443 -14 394 -18 508 40 l99 50 535 6 c581 6 661 13 760 65
l47 24 861 3 862 2 0 26 c0 35 14 39 111 32 62 -4 83 -3 89 7 13 21 22 171 12
205 l-8 30 -103 6 c-56 4 -104 9 -107 12 -3 3 -8 100 -11 216 l-6 211 -78 0
-78 0 -16 -57 c-41 -147 -80 -263 -107 -320 l-29 -63 -195 0 c-160 0 -198 3
-210 15 -10 9 -34 15 -62 15 -26 0 -56 6 -67 14 -11 8 -47 51 -79 97 -33 46
-69 94 -80 107 l-19 22 -346 0 c-328 0 -348 1 -376 20 -16 11 -36 20 -44 20
-8 0 -25 10 -39 23 l-24 22 -578 3 c-646 3 -581 -5 -595 75 -6 36 -7 37 -51
37 -39 0 -46 -3 -55 -26 -9 -24 -11 -25 -27 -11 -23 21 -68 31 -76 18 -5 -7
-80 -11 -228 -11 l-220 0 -20 25 c-16 20 -28 25 -67 25 -73 0 -89 -27 -46 -78
15 -18 25 -42 25 -61 l0 -32 -1136 2 -1135 2 -37 -30 c-62 -50 -227 -248 -258
-310 -29 -57 -29 -57 -104 -81 -41 -13 -163 -46 -270 -73 -221 -57 -220 -57
-361 7 l-76 34 -819 0 c-450 0 -824 0 -830 0 -7 0 -18 -15 -25 -32 -12 -27
-13 -150 -11 -674 l3 -642 42 -11 c51 -14 104 -5 255 43 139 44 464 162 672
243 91 36 219 85 285 108 66 24 217 80 335 125 118 45 341 126 495 180 154 54
345 122 424 150 78 28 158 54 176 57 33 5 33 5 40 -43 3 -27 10 -68 16 -92 8
-36 6 -51 -12 -90 -11 -26 -60 -148 -108 -272 -49 -124 -111 -272 -140 -329
-28 -58 -51 -112 -51 -122 0 -27 45 -53 170 -98 148 -53 256 -80 350 -87 103
-9 110 -1 110 114 0 76 5 101 41 202 23 63 73 210 111 325 38 116 73 214 77
218 5 4 23 -9 42 -30 78 -87 65 -83 313 -83 252 0 249 -1 321 92 34 45 59 63
75 53 4 -3 11 -32 15 -65 6 -54 27 -92 41 -77 3 3 9 32 13 64 8 65 16 83 36
83 15 0 19 19 31 125 7 71 14 62 44 -55 37 -150 99 -311 171 -450 108 -205
172 -300 325 -477 95 -109 154 -199 154 -235 0 -26 -3 -28 -37 -28 -21 0 -49
-3 -63 -6 -24 -6 -24 -6 -5 9 20 15 20 16 -5 25 -14 5 -34 19 -44 31 -11 11
-24 21 -31 21 -6 0 -16 10 -22 23 -6 12 -43 61 -83 108 -152 181 -285 397
-371 599 -17 41 -33 77 -35 79 -2 3 -19 -10 -37 -27 -44 -43 -68 -41 -102 8
-15 22 -29 40 -31 40 -2 0 -19 -11 -39 -24 -20 -14 -56 -28 -81 -32 -45 -6
-497 -1 -522 7 -10 3 -18 -13 -27 -46 -8 -28 -44 -129 -80 -225 -61 -157 -68
-183 -70 -255 -2 -97 -33 -187 -73 -213 -22 -14 -49 -17 -157 -16 -151 1 -251
21 -385 79 -47 20 -108 45 -136 56 -61 23 -85 47 -118 119 -33 70 -32 83 3
139 16 25 39 71 51 101 12 30 30 69 40 85 19 31 91 209 109 267 5 18 28 75 51
127 22 51 39 96 36 98 -2 3 -13 -4 -23 -14 -11 -11 -26 -20 -34 -21 -25 -1
-192 -31 -244 -43 -27 -6 -84 -25 -125 -41 -57 -22 -76 -34 -77 -49 -1 -10 3
-19 9 -19 7 0 7 -4 -1 -14 -7 -9 -46 -15 -119 -19 -115 -6 -128 -9 -357 -100
-77 -30 -166 -63 -197 -73 -64 -20 -67 -26 -43 -94 8 -23 38 -133 65 -244 59
-232 90 -339 132 -449 17 -43 28 -81 25 -84 -3 -2 -25 -9 -49 -14 -24 -5 -50
-12 -60 -15 -12 -4 -21 9 -38 53 -31 83 -106 344 -146 513 -38 159 -66 270
-68 270 -1 0 -37 -15 -81 -34 -123 -51 -624 -236 -787 -290 -77 -25 -216 -63
-323 -86 -55 -12 -108 -27 -118 -32 -10 -5 -21 -8 -23 -5 -2 2 -11 40 -20 83
-12 65 -15 195 -16 759 -1 749 -4 719 61 780 l32 30 600 3 599 3 0 952 0 953
188 61 c103 34 333 112 512 173 363 124 634 210 975 310 127 37 318 94 425
125 107 32 220 63 251 71 31 7 155 44 275 83 188 59 327 100 569 166 28 8 59
21 70 29 11 9 27 13 35 9 8 -3 44 -16 80 -29z m-4124 -2111 c33 -71 55 -153
41 -153 -19 0 -37 15 -37 31 0 16 -8 19 -45 19 -33 0 -45 -4 -45 -15 0 -8 -9
-15 -20 -15 -27 0 -25 15 9 102 15 40 31 81 34 91 12 32 27 17 63 -60z m557
30 c12 -7 8 -58 -6 -77 -10 -13 -24 -17 -67 -14 l-55 3 -3 47 c-3 42 -1 47 20
51 23 5 97 -2 111 -10z m7077 -7 c0 -7 3 -28 6 -45 l7 -31 -70 0 -70 0 -6 37
c-4 20 -4 40 -1 45 3 4 34 8 70 8 48 0 64 -4 64 -14z m-7342 -35 c4 -41 -8
-51 -66 -51 -56 0 -82 14 -82 46 0 31 29 44 95 41 49 -2 50 -3 53 -36z m7561
7 c13 -34 -5 -49 -53 -46 -30 2 -42 8 -44 21 -7 35 6 47 48 47 33 0 42 -4 49
-22z m-2709 -423 c21 -25 -13 -30 -215 -30 -179 0 -237 6 -221 23 7 6 69 9
367 20 40 1 60 -2 69 -13z m185 -66 c0 -24 -5 -34 -15 -34 -16 0 -25 37 -16
62 10 26 31 8 31 -28z m-151 -17 c10 -35 -4 -62 -33 -62 -43 0 -55 57 -18 83
29 21 40 17 51 -21z m300 12 c9 -24 7 -187 -3 -203 -19 -30 -31 2 -31 87 0 90
7 132 20 132 4 0 11 -7 14 -16z m994 -10 c21 -6 22 -12 22 -90 0 -67 -3 -84
-14 -84 -11 0 -16 15 -18 53 -2 34 -7 52 -15 51 -7 -1 -209 -2 -450 -2 -240
-1 -434 -4 -432 -7 3 -2 19 -5 37 -7 35 -2 45 -18 11 -18 -11 0 -18 -4 -14 -9
6 -10 -25 -31 -44 -31 -7 0 -11 29 -11 75 l0 75 453 0 c248 0 462 -3 475 -6z
m150 -277 c2 -216 0 -257 -12 -257 -23 0 -26 24 -26 208 0 209 8 314 24 309 8
-3 12 -84 14 -260z m-2682 226 c11 -4 2 -14 -33 -34 -77 -46 -116 -35 -93 26
10 26 12 27 60 21 28 -4 57 -9 66 -13z m-1016 -15 c0 -50 1 -50 -304 -55 -193
-4 -286 -2 -286 5 0 5 16 24 35 41 l36 31 259 0 260 0 0 -22z m788 -3 c1 -11
-1 -25 -5 -31 -6 -8 -112 -13 -345 -16 l-338 -5 0 39 0 38 343 -2 c333 -3 342
-3 345 -23z m1040 -82 l-3 -98 -417 -3 -418 -2 0 26 c0 14 14 59 31 100 l31
74 389 0 390 0 -3 -97z m2617 52 c8 -11 15 -23 15 -27 0 -5 -151 -8 -335 -8
l-335 0 0 23 c0 13 3 27 7 31 4 3 148 5 320 3 297 -3 313 -4 328 -22z m969 -5
c24 -9 26 -15 26 -64 0 -60 -6 -66 -70 -66 -72 0 -81 14 -60 92 13 45 50 59
104 38z m-4485 -109 c8 -5 11 -15 8 -23 -4 -12 -82 -16 -488 -21 -655 -9
-1179 -9 -1179 1 0 5 9 18 20 30 l21 22 802 0 c447 0 808 -4 816 -9z m1075
-37 c8 -21 8 -324 0 -391 -5 -35 -11 -53 -20 -53 -11 0 -14 43 -14 230 0 190
2 230 14 230 8 0 17 -7 20 -16z m1554 0 c8 -2 12 -30 11 -96 -1 -126 -13 -156
-24 -58 -4 41 -7 85 -6 98 l2 22 -730 0 c-721 0 -731 0 -731 20 0 18 8 20 133
22 174 4 1328 -3 1345 -8z m740 -11 l-3 -28 -245 0 -245 0 -3 28 -3 27 251 0
251 0 -3 -27z m-1005 -50 c125 -3 227 -9 227 -13 0 -4 -177 -7 -392 -6 -216 1
-538 -1 -716 -4 -252 -4 -322 -2 -322 7 0 10 83 13 363 16 199 1 419 3 488 5
69 1 228 -1 352 -5z m1415 -35 l-3 -33 -167 -3 -168 -2 0 23 c0 43 14 47 183
47 l158 0 -3 -32z m800 -3 l3 -31 -146 1 c-141 0 -146 1 -141 20 3 11 6 26 6
33 0 10 31 12 138 10 l137 -3 3 -30z m-4574 -7 c-7 -12 -221 -74 -529 -154
-93 -25 -257 -69 -363 -99 -106 -30 -208 -55 -228 -55 -73 0 -109 80 -61 136
23 26 28 27 128 29 128 2 231 33 323 97 l61 43 225 5 c320 7 449 6 444 -2z
m3344 -3 c6 -2 12 -11 12 -20 0 -13 -22 -15 -152 -15 -216 0 -348 10 -348 26
0 7 10 14 23 16 31 4 449 -2 465 -7z m850 9 c12 -4 22 -12 22 -19 0 -18 -106
-26 -242 -19 -106 6 -118 9 -118 26 0 17 11 18 158 18 86 0 167 -3 180 -6z
m522 -29 c0 -32 -2 -35 -30 -35 -28 0 -30 3 -30 35 0 32 2 35 30 35 28 0 30
-3 30 -35z m-3930 11 c0 -7 -10 -16 -22 -20 -39 -10 -708 -7 -708 4 0 26 49
29 383 30 289 0 347 -2 347 -14z m1695 5 c61 -5 -20 -8 -255 -10 -190 -1 -437
-6 -550 -11 -550 -26 -520 -25 -520 -3 0 18 4 19 48 12 78 -13 284 -11 276 3
-4 6 -3 9 2 6 5 -4 81 -3 169 1 209 10 715 11 830 2z m-1077 -8 c-27 -2 -69
-2 -95 0 -27 2 -5 3 47 3 52 0 74 -1 48 -3z m-3040 -55 c28 -28 3 -84 -34 -76
-30 6 -39 33 -21 62 19 28 36 33 55 14z m4062 -10 c0 -8 -60 -9 -212 -5 -217
6 -882 -8 -995 -21 -56 -7 -63 -6 -63 10 0 22 45 23 763 25 365 2 507 -1 507
-9z m-3890 -23 c26 -32 -13 -81 -47 -59 -35 22 -23 74 17 74 10 0 23 -7 30
-15z m2308 -11 c27 -19 28 -45 2 -69 -18 -17 -21 -17 -45 -1 -29 19 -32 42 -8
68 20 22 23 22 51 2z m3408 -7 c4 -3 4 -13 1 -22 -6 -13 -37 -15 -227 -15
-174 0 -220 3 -220 13 0 36 20 39 233 34 114 -2 210 -7 213 -10z m-6131 -22
c0 -16 -11 -23 -55 -34 -67 -17 -463 -127 -506 -141 -39 -13 -64 -13 -64 0 0
6 8 10 18 10 14 1 15 2 2 9 -36 21 -184 33 -370 30 -107 -1 -202 0 -210 4 -8
4 -33 1 -55 -7 -34 -12 -42 -12 -62 1 -21 14 -25 14 -42 -1 -20 -19 -44 -20
-72 -5 -15 7 -24 7 -35 -2 -9 -7 -32 -10 -60 -6 -30 3 -60 -1 -82 -10 -24 -10
-38 -11 -45 -4 -16 16 -41 14 -82 -6 -29 -14 -40 -15 -55 -5 -26 16 -45 15
-59 -2 -9 -10 -28 -12 -77 -8 -46 3 -68 1 -74 -7 -4 -7 -5 -54 -3 -104 3 -51
1 -117 -4 -147 -9 -53 -10 -50 -18 75 -5 72 -9 137 -10 145 0 25 -15 40 -39
40 -22 0 -23 -4 -29 -97 -4 -54 -7 -210 -7 -348 0 -137 -4 -256 -9 -264 -13
-20 -19 21 -26 184 -4 77 -12 196 -20 265 -7 69 -16 194 -20 278 l-7 153 714
-3 713 -3 60 -35 c55 -32 66 -35 140 -35 60 0 123 11 250 42 286 71 300 72
300 38z m5295 6 c0 -10 -7 -22 -16 -25 -9 -3 -135 -6 -280 -6 l-264 0 0 25 0
25 280 0 c268 0 280 -1 280 -19z m-7542 -571 c2 -546 -1 -614 -27 -572 -4 7
-11 183 -14 390 -4 207 -10 459 -14 558 -6 173 -5 182 13 187 10 2 24 4 29 2
6 -1 11 -200 13 -565z m5518 552 c-3 -6 -45 -13 -94 -17 -48 -3 -99 -9 -114
-11 -22 -5 -28 -2 -28 13 0 16 12 18 121 21 77 2 119 0 115 -6z m1109 -2 c-4
-6 -166 -10 -453 -10 -246 0 -478 -5 -517 -10 -49 -7 -97 -24 -158 -55 -49
-24 -87 -39 -84 -32 3 9 -13 11 -64 9 l-69 -4 0 27 c0 23 2 26 15 15 24 -20
140 -7 209 24 32 15 75 31 95 35 53 13 1034 14 1026 1z m-2120 -129 c70 -6 87
-18 67 -48 -11 -17 -1138 -20 -1136 -4 1 6 2 14 2 19 1 4 172 6 379 4 431 -4
483 -1 483 30 0 19 4 20 68 13 37 -5 98 -11 137 -14z m-1687 -23 c17 -17 15
-44 -4 -63 -15 -15 -18 -15 -35 1 -29 26 -19 74 16 74 6 0 16 -5 23 -12z
m1767 -195 c82 -285 294 -636 513 -851 62 -61 92 -97 88 -107 -10 -26 -31 -17
-108 49 -129 110 -292 323 -396 516 -44 84 -112 261 -137 360 -16 61 -16 65 1
77 10 7 19 13 20 13 2 0 10 -26 19 -57z m-2355 27 c0 -5 -8 -14 -18 -19 -26
-14 -240 -90 -467 -166 -110 -37 -258 -90 -330 -117 -121 -47 -217 -81 -500
-178 -60 -21 -164 -59 -230 -85 -102 -39 -453 -165 -508 -182 -26 -8 -20 13
11 35 47 33 105 60 223 101 63 21 168 60 234 86 303 118 995 357 1415 489 155
48 170 51 170 36z m2251 -86 c98 -334 255 -597 516 -865 102 -104 128 -139
106 -139 -33 0 -185 147 -294 283 -133 166 -226 319 -293 482 -54 134 -101
296 -92 320 12 33 31 7 57 -81z m-123 32 c20 -86 98 -292 156 -413 94 -194
258 -417 438 -595 91 -90 112 -118 89 -118 -16 0 -125 87 -177 141 -136 144
-307 385 -392 554 -59 119 -113 260 -141 372 -26 99 -26 113 -3 113 13 0 21
-14 30 -54z m-1286 34 c72 0 88 -3 88 -15 0 -13 -31 -15 -237 -13 -225 3 -238
4 -241 22 -4 18 2 19 149 13 83 -4 192 -7 241 -7z m658 -112 c0 -115 -1 -123
-26 -155 l-25 -33 -206 2 -206 3 -18 25 c-36 49 -44 110 -26 186 27 108 51
108 102 -1 41 -86 86 -125 151 -133 56 -6 60 16 9 48 -48 30 -65 57 -65 106 0
76 -5 74 161 74 l149 0 0 -122z m508 95 c6 -16 37 -106 68 -202 32 -96 81
-221 111 -279 61 -120 177 -300 268 -417 70 -90 247 -274 285 -297 21 -13 23
-18 12 -31 -12 -14 -17 -13 -50 16 -304 266 -521 563 -635 868 -46 122 -109
347 -102 359 12 19 33 10 43 -17z m-308 -95 c0 -40 -14 -50 -61 -46 -39 3 -44
6 -47 30 -3 28 -6 27 91 36 12 1 17 -5 17 -20z m1368 -38 c-9 -14 -24 -20 -49
-20 -19 0 -39 3 -43 7 -11 11 36 32 72 33 30 0 31 -2 20 -20z m-2252 -31 c-3
-17 -28 -83 -55 -147 -27 -64 -72 -184 -100 -267 -27 -82 -66 -196 -86 -253
-30 -85 -35 -111 -29 -148 5 -39 4 -44 -12 -44 -36 1 -357 115 -362 129 -6 17
25 10 186 -41 68 -21 128 -38 133 -36 6 2 52 129 103 283 84 253 170 486 197
536 16 31 32 23 25 -12z m-276 7 c0 -2 -12 -30 -26 -62 -25 -57 -60 -146 -145
-374 -69 -184 -99 -240 -125 -240 -15 0 -24 6 -24 16 0 20 174 470 234 607 23
51 29 57 56 57 16 0 30 -2 30 -4z m5340 -6 c0 -5 -16 -34 -35 -64 -19 -30 -35
-60 -35 -66 0 -6 14 -37 30 -70 37 -74 38 -89 4 -82 -19 3 -31 17 -47 51 -27
58 -26 56 -34 47 -4 -3 -7 -25 -7 -49 -1 -38 -3 -42 -28 -44 l-28 -2 0 140 0
139 25 0 c23 0 25 -3 25 -52 l1 -53 22 26 c12 15 30 40 39 58 12 22 24 31 43
31 14 0 25 -4 25 -10z m-305 -10 c8 -13 62 -209 67 -240 2 -20 -2 -26 -19 -28
-17 -3 -23 2 -23 15 0 27 -20 43 -52 43 -24 0 -30 -5 -34 -30 -5 -23 -12 -30
-30 -30 -30 0 -30 6 0 110 14 47 29 104 36 128 8 31 16 42 30 42 10 0 22 -4
25 -10z m633 -22 c3 -24 0 -28 -21 -28 -34 0 -39 -19 -31 -127 l7 -93 -27 0
-27 0 3 116 3 115 -32 -6 c-31 -6 -33 -4 -33 25 l0 31 78 -3 c76 -3 77 -3 80
-30z m212 8 c0 -35 -28 -96 -62 -134 -19 -23 -28 -42 -26 -60 5 -44 25 -36 37
15 l10 48 -4 -49 c-6 -61 -18 -76 -61 -76 -32 0 -34 2 -34 34 0 45 18 94 51
140 16 21 26 43 22 49 -3 5 -25 7 -49 3 -41 -5 -44 -4 -44 18 0 12 3 26 7 29
3 4 39 7 80 7 70 0 73 -1 73 -24z m-402 -133 c3 -17 -3 -24 -22 -29 -37 -9
-80 9 -84 35 -3 21 0 22 50 19 46 -3 53 -6 56 -25z m-2019 -134 c-18 -11 -19
-8 -12 20 5 21 7 21 16 6 6 -12 5 -20 -4 -26z m-24 -60 c-7 -34 16 -59 52 -59
18 0 33 5 33 10 0 6 8 10 19 10 22 0 34 -45 19 -74 -11 -20 -8 -42 16 -119 14
-44 14 -47 -2 -38 -9 5 -30 24 -47 41 -50 53 -57 54 -129 18 -36 -18 -68 -30
-71 -27 -3 3 2 25 10 49 22 62 19 73 -29 118 l-43 40 69 6 c52 6 71 12 81 27
16 25 27 24 22 -2z m245 -162 c0 -27 6 -36 28 -47 l27 -13 -25 -8 c-52 -15
-58 -11 -65 35 -8 48 -2 66 21 66 9 0 14 -11 14 -33z m-2559 -108 c9 -17 8
-20 -3 -14 -8 4 -8 2 2 -7 15 -13 43 -58 37 -58 -2 0 -26 23 -54 50 -50 50
-51 50 -22 50 19 0 32 -7 40 -21z m2579 -68 c-1 -10 -6 -7 -15 9 -19 33 -18
50 0 26 8 -11 15 -27 15 -35z m-433 -37 c-3 -3 -12 -4 -19 -1 -8 3 -5 6 6 6
11 1 17 -2 13 -5z m-691 -108 c14 -11 16 -19 9 -29 -5 -8 -31 -45 -57 -83 -26
-38 -57 -80 -68 -94 -19 -24 -20 -24 -20 -4 0 33 20 85 52 131 15 23 28 48 28
55 0 14 19 38 30 38 3 0 15 -6 26 -14z m-4896 -155 c0 -27 -3 -29 -51 -34 -29
-4 -54 -9 -58 -12 -13 -14 19 -40 55 -45 31 -4 39 -9 39 -25 0 -16 -8 -21 -42
-23 -38 -3 -43 -6 -43 -28 0 -22 4 -24 50 -24 49 0 50 -1 50 -30 l0 -30 -75 0
-75 0 0 135 0 134 58 4 c31 2 65 4 75 5 13 2 17 -5 17 -27z m208 -18 c3 -40
-9 -56 -23 -33 -3 6 -24 10 -46 10 -33 0 -40 -3 -37 -17 2 -10 10 -19 18 -20
87 -11 89 -12 100 -54 6 -22 10 -55 8 -72 l-3 -32 -82 -3 -83 -3 0 29 c0 38 5
41 48 31 47 -10 84 -2 80 19 -2 11 -20 19 -53 25 -28 4 -53 11 -56 15 -4 4
-10 37 -14 74 l-6 67 28 4 c15 2 48 4 73 3 l45 -1 3 -42z m7035 30 c4 -2 7
-33 7 -67 l0 -64 -37 -7 c-89 -16 -95 -47 -12 -55 50 -5 54 -7 54 -30 0 -19
-5 -25 -22 -24 -13 0 -50 1 -83 2 -60 2 -60 2 -60 32 0 47 25 86 69 107 43 19
54 34 44 59 -3 9 -11 13 -22 8 -9 -4 -28 -9 -43 -12 -26 -4 -28 -2 -28 32 l0
37 63 -7 c34 -4 65 -9 70 -11z m415 -60 c3 -69 2 -73 -25 -89 -31 -19 -53 -43
-53 -56 0 -5 14 -14 30 -19 17 -6 30 -15 30 -19 0 -9 -130 -18 -135 -10 -8 14
27 84 62 125 54 60 60 85 24 85 -15 0 -36 -7 -47 -15 -10 -8 -22 -15 -26 -15
-13 0 -9 78 5 84 6 2 39 4 72 3 l60 -2 3 -72z m212 51 c6 -14 10 -54 10 -89
l0 -64 -34 -7 c-42 -7 -74 -38 -54 -50 7 -4 28 -10 47 -13 19 -4 36 -12 39
-19 3 -9 -17 -12 -78 -12 l-81 0 7 38 c4 26 20 51 55 85 55 55 64 87 24 87
-14 0 -34 -9 -45 -20 -37 -37 -48 -21 -34 48 7 34 17 39 87 41 42 1 49 -2 57
-25z m-7492 -11 c-3 -26 -7 -28 -56 -31 -40 -2 -54 1 -58 12 -13 34 3 46 61
46 56 0 56 0 53 -27z m176 -10 c-4 -21 -10 -76 -13 -123 l-6 -85 -64 -3 c-35
-2 -68 1 -74 7 -13 13 2 108 20 126 8 8 32 15 54 15 35 0 39 2 39 26 0 25 -2
26 -47 22 -46 -3 -48 -2 -51 25 l-3 27 76 0 77 0 -8 -37z m6892 15 c-3 -13 -6
-27 -6 -31 0 -4 -6 -7 -12 -6 -7 1 -30 1 -51 0 -34 -1 -38 -4 -35 -23 3 -20 9
-23 51 -22 45 0 47 -1 47 -27 0 -26 -4 -28 -42 -31 -35 -2 -43 -7 -43 -23 0
-17 6 -20 48 -18 45 1 47 0 47 -27 0 -28 -1 -28 -64 -32 l-64 -3 -4 125 c-3
69 -3 128 -1 133 2 4 34 7 70 7 63 0 65 -1 59 -22z m-1683 -205 c-7 -2 -21 -2
-30 0 -10 3 -4 5 12 5 17 0 24 -2 18 -5z m190 -20 c-7 -2 -21 -2 -30 0 -10 3
-4 5 12 5 17 0 24 -2 18 -5z m-3135 -20 c-10 -2 -28 -2 -40 0 -13 2 -5 4 17 4
22 1 32 -1 23 -4z m-139 -7 c-2 -2 -17 -6 -34 -10 -22 -5 -26 -4 -15 4 14 9
59 15 49 6z m38 -2 c-3 -3 -12 -4 -19 -1 -8 3 -5 6 6 6 11 1 17 -2 13 -5z
m-284 -31 c-13 -2 -35 -2 -50 0 -16 2 -5 4 22 4 28 0 40 -2 28 -4z m3065 0
c-10 -2 -26 -2 -35 0 -10 3 -2 5 17 5 19 0 27 -2 18 -5z m148 -6 c10 -10 -88
-9 -104 1 -7 5 12 8 42 7 30 0 58 -4 62 -8z m-3343 -4 c-7 -2 -21 -2 -30 0
-10 3 -4 5 12 5 17 0 24 -2 18 -5z m3430 -10 c-13 -2 -35 -2 -50 0 -16 2 -5 4
22 4 28 0 40 -2 28 -4z m-4123 -63 c0 -5 -9 -10 -21 -10 -11 0 -17 5 -14 10 3
6 13 10 21 10 8 0 14 -4 14 -10z m57 4 c-3 -3 -12 -4 -19 -1 -8 3 -5 6 6 6 11
1 17 -2 13 -5z m-117 -14 c-8 -5 -24 -9 -35 -9 -16 1 -16 2 5 9 35 11 48 11
30 0z m1988 -27 c-2 -30 -9 -41 -30 -51 l-28 -13 0 -548 c0 -595 1 -583 -56
-650 -53 -63 -98 -80 -243 -92 -119 -10 -137 -9 -178 6 -52 20 -113 71 -143
120 -20 32 -20 46 -19 587 l1 553 -26 13 c-17 9 -26 21 -26 37 0 26 10 28 203
40 l97 6 0 -35 c0 -28 -4 -35 -22 -38 l-23 -3 2 -534 c1 -376 5 -537 13 -545
11 -11 112 -11 183 0 l37 6 0 346 c1 191 3 436 6 545 6 193 5 199 -14 204 -20
5 -36 39 -26 55 3 4 33 8 67 9 34 1 87 4 117 9 111 15 112 15 108 -27z m362 6
c0 -9 7 -36 16 -60 76 -210 152 -442 190 -579 25 -91 49 -168 52 -172 4 -4 4
32 0 80 -4 48 -5 218 -1 379 l6 292 -26 10 c-15 6 -27 14 -27 18 0 5 -3 18 -6
31 l-6 22 159 0 159 0 -4 -36 c-3 -27 -11 -38 -30 -45 l-25 -10 7 -639 7 -640
-108 6 c-59 4 -109 8 -111 9 -13 11 -155 441 -223 675 -28 96 -55 182 -61 190
-6 10 -7 -86 -4 -274 3 -159 6 -340 6 -403 0 -94 3 -113 15 -113 10 0 15 -10
15 -34 0 -19 -4 -37 -8 -40 -5 -3 -67 -6 -138 -7 l-129 -1 -3 31 c-3 25 0 31
17 31 15 0 22 8 26 33 3 17 6 292 8 609 l2 577 -25 3 c-21 2 -26 9 -28 38 l-3
35 141 1 c125 0 140 -1 140 -17z m2383 14 c-7 -2 -21 -2 -30 0 -10 3 -4 5 12
5 17 0 24 -2 18 -5z m-4818 -13 c-16 -4 -43 -8 -60 -8 -29 1 -29 1 5 8 19 4
46 7 60 8 22 0 22 -1 -5 -8z m3421 -6 c81 -8 151 -17 156 -20 11 -7 10 -34 -2
-34 -18 0 -11 -60 36 -299 25 -130 58 -303 74 -386 16 -82 43 -231 60 -330 17
-99 33 -193 36 -208 3 -15 19 -40 35 -55 21 -20 28 -33 23 -46 -6 -15 -14 -17
-68 -10 -33 4 -101 10 -151 13 l-90 6 -3 33 c-3 26 0 32 17 32 11 0 22 4 25 9
5 8 -30 201 -37 207 -1 1 -56 7 -122 14 -66 6 -124 13 -129 13 -12 2 -49 -190
-42 -210 3 -8 10 -12 15 -9 8 6 24 -62 16 -74 -2 -3 -37 -3 -77 1 -40 4 -103
8 -140 8 l-68 1 0 34 c0 30 3 35 28 38 27 3 27 4 49 138 23 139 75 414 143
762 58 292 58 293 26 323 -25 24 -33 45 -19 58 9 10 44 9 209 -9z m1554 -4
c20 -6 21 -8 5 -8 -11 0 -29 3 -40 8 -25 11 1 11 35 0z m-3740 -50 c0 -33 -3
-40 -20 -40 -12 0 -22 -8 -25 -22 -3 -13 -4 -288 -3 -613 l3 -590 22 -3 c22
-3 41 -49 26 -62 -4 -4 -62 -12 -128 -19 -66 -6 -130 -14 -142 -17 -21 -6 -23
-3 -23 29 0 28 4 36 20 39 20 3 21 11 26 391 3 271 2 387 -5 382 -6 -3 -11
-15 -11 -25 0 -46 -194 -776 -212 -797 -18 -22 -50 -11 -70 22 -22 39 -142
487 -167 629 -11 59 -22 111 -25 114 -11 10 -16 -417 -8 -635 3 -107 8 -140
17 -137 17 7 29 -44 14 -62 -6 -8 -30 -14 -53 -14 -41 0 -131 -12 -193 -26
-32 -6 -33 -5 -33 25 0 26 5 34 28 42 l27 9 0 615 c0 607 0 614 -20 617 -15 2
-21 12 -23 40 -4 43 -11 40 143 57 55 6 111 14 124 18 21 5 23 4 18 -18 -4
-14 0 -47 8 -74 8 -28 27 -97 43 -155 16 -58 45 -154 65 -215 19 -60 45 -153
58 -205 27 -110 20 -121 74 127 20 90 56 234 81 320 26 87 47 182 48 210 0 29
6 53 11 54 14 2 266 26 288 27 14 2 17 -6 17 -38z m2760 4 c58 -7 183 -21 278
-31 l172 -18 0 -117 c0 -127 -1 -129 -55 -108 -14 5 -30 21 -35 35 -11 28 -32
39 -97 49 l-43 6 0 -565 c0 -560 0 -565 20 -565 26 0 49 -45 32 -62 -17 -17
-314 21 -307 40 3 7 5 18 5 23 0 5 9 9 20 9 20 0 20 7 20 569 0 314 -3 572 -7
574 -5 3 -35 7 -68 8 -60 4 -60 4 -65 -26 -5 -28 -8 -30 -48 -29 -23 0 -44 3
-46 5 -2 2 -6 55 -8 117 l-5 113 66 -6 c36 -4 113 -13 171 -21z m1194 7 c-3
-3 18 -14 48 -23 l53 -17 -44 6 c-24 3 -69 14 -100 24 l-56 17 52 -1 c29 0 50
-3 47 -6z m-5509 -16 c-33 -7 -62 -12 -64 -10 -2 2 10 7 25 10 16 4 34 8 39
10 6 2 21 3 35 3 14 0 -2 -6 -35 -13z m6050 -20 c49 -12 49 -13 14 -14 -20 0
-52 6 -70 14 -42 18 -14 18 56 0z m-6170 -4 c-10 -8 -251 -71 -274 -71 -6 0
-11 5 -11 10 0 6 10 10 23 10 13 0 27 3 30 6 4 4 26 9 49 11 24 2 72 12 108
22 78 22 87 24 75 12z m6365 -40 c198 -50 274 -71 292 -81 10 -6 25 -10 33
-10 8 0 15 -5 15 -11 0 -5 -4 -8 -9 -5 -12 8 -41 -3 -41 -15 0 -5 9 -9 20 -9
11 0 20 -4 20 -10 0 -5 9 -10 19 -10 13 0 21 -8 23 -22 2 -18 9 -23 31 -21 18
1 25 -2 21 -9 -5 -8 -1 -9 12 -4 10 4 15 4 12 0 -10 -9 20 -36 32 -29 5 3 10
1 10 -4 0 -6 -2 -11 -6 -11 -10 0 -189 51 -279 80 -49 15 -110 34 -135 41 -52
15 -45 13 -89 23 -21 5 -29 11 -21 16 6 4 34 -1 61 -11 53 -21 145 -33 153
-21 7 11 -6 27 -29 36 -16 6 -17 9 -5 16 12 8 9 10 -10 10 -19 0 -21 3 -11 9
16 10 -66 28 -109 23 -20 -2 -22 0 -10 8 13 8 12 10 -5 11 -11 1 -28 0 -39 -1
-10 -1 -22 3 -25 9 -4 5 -19 12 -35 15 -31 6 -48 16 -25 16 8 0 66 -13 129
-29z m-6950 -17 c0 -8 9 -14 19 -14 13 0 21 -8 23 -22 2 -13 6 -22 11 -20 4 1
22 2 40 2 21 0 27 3 19 9 -9 5 8 10 45 14 32 3 66 8 76 12 10 4 17 3 17 -4 0
-6 -7 -11 -15 -11 -8 0 -65 -13 -127 -29 -62 -16 -160 -41 -218 -55 -58 -14
-153 -38 -211 -54 -93 -24 -105 -25 -102 -11 3 11 12 15 24 12 13 -4 19 0 19
12 0 21 24 45 44 45 9 0 16 -6 16 -13 0 -16 72 -15 78 1 2 7 25 12 55 12 39 0
48 3 37 11 -12 8 -8 10 15 8 48 -2 55 0 55 17 0 12 7 14 30 9 23 -5 30 -3 30
9 0 8 -9 18 -20 21 -11 3 -20 11 -20 16 0 6 5 7 12 3 6 -4 8 -3 4 4 -3 6 3 13
14 17 11 4 17 11 14 17 -4 7 -2 8 4 4 7 -4 12 -14 12 -22z m5698 9 l123 -17
-3 -30 c-2 -23 -9 -32 -24 -34 -21 -3 -21 -4 -20 -470 1 -257 -3 -531 -7 -610
l-8 -142 24 -9 c26 -10 42 -50 27 -65 -6 -6 -48 -3 -114 7 -57 9 -115 17 -128
17 -30 0 -48 17 -48 47 0 18 6 23 25 23 l25 0 0 188 c0 103 2 378 4 612 4 409
4 425 -15 438 -25 17 -26 62 -1 62 9 0 72 -7 140 -17z m-5753 -8 c-16 -7 -34
-10 -40 -7 -5 3 1 9 15 13 42 12 57 8 25 -6z m6745 -5 c12 -12 26 -17 36 -13
11 4 15 2 11 -4 -8 -13 43 -33 82 -33 14 0 33 -5 41 -11 17 -11 -32 -5 -120
16 -30 7 -74 16 -98 20 -41 7 -52 23 -22 33 7 3 10 0 6 -6 -8 -14 25 -25 38
-12 7 7 4 10 -9 10 -17 0 -18 2 -5 10 19 13 17 13 40 -10z m-6405 -1 c11 -16
1 -19 -13 -3 -7 8 -8 14 -3 14 5 0 13 -5 16 -11z m6301 -1 c7 -11 -37 -10 -56
2 -10 6 -5 9 18 8 18 -1 35 -5 38 -10z m-5378 -30 c-2 -24 -10 -36 -30 -46
l-28 -13 -2 -422 c-1 -232 -3 -501 -3 -597 -2 -189 0 -211 18 -209 32 4 38 -2
35 -33 l-3 -32 -90 -13 c-49 -7 -112 -19 -139 -27 -56 -17 -68 -10 -64 34 2
16 11 26 25 30 l22 5 3 377 c2 207 0 374 -4 371 -5 -2 -8 -11 -8 -20 0 -26
-79 -389 -106 -487 -14 -50 -33 -124 -44 -164 -37 -139 -73 -194 -105 -161
-32 34 -151 457 -185 657 -6 39 -16 70 -21 66 -5 -3 -9 -162 -9 -370 0 -317 2
-364 15 -364 11 0 15 -11 15 -39 0 -38 0 -39 -46 -46 -26 -3 -78 -15 -118 -26
-88 -23 -93 -23 -98 -1 -7 26 2 42 29 53 23 8 25 13 19 47 -3 20 -6 299 -6
620 l0 582 -26 0 c-23 0 -25 3 -22 37 3 37 4 38 53 45 76 12 215 39 232 45 13
5 15 0 9 -29 -7 -36 -6 -39 104 -413 21 -71 45 -166 55 -210 25 -122 27 -126
37 -90 4 17 17 82 28 145 12 63 39 189 60 280 66 274 80 350 70 375 -9 23 -6
24 38 31 26 4 88 15 137 24 50 10 105 18 123 19 32 1 33 -1 30 -31z m-1438 -8
c0 -5 -7 -7 -15 -4 -8 4 -15 8 -15 10 0 2 7 4 15 4 8 0 15 -4 15 -10z m-88
-17 c-6 -2 -10 -9 -6 -14 3 -5 -14 -9 -38 -8 l-43 1 35 13 c19 7 42 13 50 13
10 0 11 -1 2 -5z m6590 -45 c160 -38 175 -44 213 -79 23 -21 53 -60 67 -86
l25 -48 7 -518 c7 -551 8 -535 -43 -590 -37 -41 -73 -57 -125 -57 -51 0 -261
42 -328 66 -50 17 -100 62 -133 119 l-24 40 7 546 c7 520 8 548 26 568 19 21
114 80 129 81 4 0 85 -19 179 -42z m1167 -14 c10 -9 -35 -3 -49 6 -11 8 -7 9
15 4 17 -4 32 -8 34 -10z m-7879 -68 c0 -8 -7 -16 -15 -20 -20 -7 -46 4 -39
16 4 6 9 6 14 -2 4 -7 13 -9 19 -6 6 4 9 12 6 17 -4 5 -1 9 4 9 6 0 11 -6 11
-14z m7258 -45 c37 -11 102 -27 145 -36 79 -17 85 -22 66 -53 -9 -14 -3 -48
24 -152 19 -74 62 -241 95 -370 93 -360 87 -364 87 58 l0 367 -27 27 c-30 29
-37 68 -14 68 7 0 42 -11 77 -24 35 -13 97 -31 137 -41 l72 -17 0 -39 c0 -34
-3 -38 -22 -36 l-23 2 1 -624 c2 -624 2 -625 23 -642 13 -11 21 -29 21 -48 0
-35 -8 -38 -50 -16 -17 9 -76 31 -132 50 l-101 34 -78 273 c-43 150 -99 361
-124 468 -73 315 -68 354 -48 -362 6 -222 7 -238 25 -244 15 -4 18 -13 16 -37
-4 -37 -5 -37 -107 -2 -41 15 -93 30 -115 34 -37 6 -41 9 -44 39 -3 25 0 32
15 32 17 0 18 27 18 612 l-1 611 -22 8 c-22 9 -27 26 -16 67 4 14 12 21 21 18
7 -3 44 -14 81 -25z m-7403 9 c3 -5 11 -10 16 -10 6 0 8 4 5 8 -2 4 11 9 30
10 19 2 34 0 34 -2 0 -10 -193 -67 -207 -62 -16 7 -8 26 10 26 7 0 6 -4 -3
-10 -13 -8 -13 -10 2 -10 9 0 20 5 23 10 3 6 17 10 31 10 17 0 24 5 24 20 0
21 24 28 35 10z m533 -73 c2 -10 -4 -24 -13 -31 -16 -12 -15 -22 15 -162 18
-82 72 -346 120 -587 73 -362 92 -443 110 -462 13 -13 20 -33 18 -46 -3 -20
-15 -25 -123 -49 -66 -15 -130 -32 -142 -39 -22 -11 -23 -10 -23 24 0 28 4 35
20 35 25 0 26 23 3 140 l-16 86 -106 -29 c-58 -17 -111 -31 -117 -33 -7 -1
-17 -42 -23 -91 -6 -48 -14 -100 -16 -115 -4 -25 -1 -28 21 -28 20 0 25 -4 20
-16 -3 -9 -6 -23 -6 -33 0 -13 -23 -25 -97 -49 -54 -17 -119 -39 -145 -48 -53
-20 -54 -20 -63 17 -6 23 -2 28 24 37 23 8 32 19 40 49 14 54 29 168 41 318 6
72 22 198 35 280 13 83 31 202 40 265 9 63 22 156 30 205 8 50 17 120 21 156
6 62 5 66 -15 72 -15 4 -21 13 -21 34 0 29 2 29 99 51 54 13 130 33 167 47 78
27 97 27 102 2z m7619 17 c-3 -3 -12 -4 -19 -1 -8 3 -5 6 6 6 11 1 17 -2 13
-5z m97 -40 c6 -15 4 -15 -11 -3 -10 7 -20 15 -22 16 -2 2 3 3 11 3 9 0 19 -7
22 -16z m-8335 -825 c-6 -23 -14 -50 -19 -60 -6 -9 -7 -25 -4 -33 5 -12 0 -16
-21 -16 -14 0 -35 -4 -45 -10 -16 -8 -21 -4 -38 33 -39 85 -41 82 48 108 88
26 89 26 79 -22z m8337 20 c32 -11 105 -24 161 -28 76 -7 112 -15 142 -32 23
-12 41 -27 41 -33 0 -6 -40 -26 -89 -43 -100 -37 -160 -41 -239 -18 -28 9 -57
14 -64 13 -8 -2 -12 5 -10 18 2 12 -6 45 -17 74 -30 78 -22 83 75 49z m-8703
-103 c15 -4 27 -13 27 -21 0 -19 -11 -19 -55 2 -36 17 -49 38 -17 30 9 -3 29
-8 45 -11z m64 -22 c-3 -3 -12 -4 -19 -1 -8 3 -5 6 6 6 11 1 17 -2 13 -5z
m3263 -171 c-19 -3 -39 -9 -45 -15 -7 -6 6 -8 40 -3 36 5 46 4 35 -4 -12 -9
-10 -11 13 -11 20 0 27 -5 27 -20 0 -13 -7 -20 -20 -20 -30 0 -24 -18 8 -23
23 -3 -18 -6 -190 -11 -21 -1 -23 3 -20 42 2 30 -1 42 -10 42 -10 0 -9 3 2 10
8 5 29 10 45 9 l30 0 -25 -15 -25 -15 25 7 c14 3 29 12 35 20 7 9 27 13 60 12
40 -1 43 -2 15 -5z m2568 -10 c-10 -2 -28 -2 -40 0 -13 2 -5 4 17 4 22 1 32
-1 23 -4z m69 -9 c-3 -3 -12 -4 -19 -1 -8 3 -5 6 6 6 11 1 17 -2 13 -5z
m-2442 -64 c-3 -5 -12 -10 -18 -10 -7 0 -6 4 3 10 19 12 23 12 15 0z m5210
-70 c7 0 15 5 17 12 2 6 10 -3 17 -20 14 -33 30 -42 33 -19 0 6 4 -26 9 -73 8
-91 10 -386 2 -357 -3 10 -14 17 -29 17 -17 0 -24 6 -24 19 0 25 -33 22 -42
-4 -3 -11 -6 90 -6 225 1 135 3 235 5 223 2 -13 10 -23 18 -23z m-6555 -10
c24 -8 24 -8 3 -9 -13 -1 -23 -5 -23 -11 0 -17 -14 -11 -28 10 -10 17 -10 20
5 19 10 -1 29 -5 43 -9z m630 4 c-71 -16 -127 -19 -137 -9 -8 9 8 12 70 12 45
0 75 -2 67 -3z m1712 -174 c2 -80 3 -212 2 -295 -1 -82 -2 -265 -3 -405 l-2
-255 -33 -21 -33 -21 -31 26 -31 26 6 545 6 545 57 0 57 0 5 -145z m204 70
c-5 -54 -4 -80 3 -80 6 0 11 11 11 25 0 14 5 25 10 25 6 0 10 -13 10 -30 0
-16 5 -30 10 -30 6 0 10 -9 10 -20 0 -22 39 -29 41 -7 0 6 5 -1 11 -16 7 -21
7 -32 -1 -40 -14 -14 -15 -77 -1 -77 6 0 10 -104 10 -293 l0 -294 -50 -27
c-27 -15 -52 -31 -55 -36 -3 -6 -14 -14 -23 -19 -16 -8 -17 24 -17 495 0 486
1 504 19 504 17 0 18 -6 12 -80z m310 63 c-12 -31 -19 -680 -7 -663 8 11 9 5
5 -25 -4 -32 -3 -36 5 -18 6 12 22 25 36 29 19 5 25 12 25 35 0 34 19 40 22 7
1 -13 5 20 8 72 l6 95 2 -106 2 -106 -52 -44 c-29 -24 -54 -47 -56 -51 -18
-40 -22 41 -22 392 0 361 2 400 16 400 11 0 14 -5 10 -17z m-835 -25 l2 -33 6
35 c6 32 7 29 14 -29 11 -98 9 -929 -3 -936 -5 -3 -37 16 -71 42 l-62 48 7
260 c3 143 6 347 6 453 l0 192 50 0 c49 0 50 0 51 -32z m-389 -60 c-5 -114 -9
-122 -11 -20 0 50 3 92 7 92 4 0 6 -33 4 -72z m1601 66 c35 -6 37 -9 37 -43 0
-20 -4 -31 -8 -26 -4 6 -14 10 -22 9 -8 0 -26 -2 -39 -2 -16 -2 -21 -6 -17
-17 3 -9 0 -15 -9 -15 -9 0 -16 -15 -19 -42 -3 -24 -7 -54 -9 -68 -2 -14 -6
28 -8 93 l-4 117 30 0 c17 0 47 -3 68 -6z m-1869 -61 c-4 -32 -10 -60 -14 -63
-3 -3 -13 -41 -22 -85 l-16 -80 -1 143 -1 142 31 0 30 0 -7 -57z m-1339 31
c-38 -7 -88 -12 -110 -12 -25 0 -31 2 -16 5 19 4 21 7 10 14 -8 5 26 8 86 7
l100 -1 -70 -13z m-172 -31 c-7 -2 -21 -2 -30 0 -10 3 -4 5 12 5 17 0 24 -2
18 -5z m1283 -40 c-9 -65 -24 -79 -70 -63 -32 10 -86 68 -86 92 0 8 39 15 109
17 l54 1 -7 -47z m-718 -161 c356 -425 791 -797 1283 -1097 194 -118 545 -305
572 -305 16 0 265 126 442 223 357 196 598 370 965 695 164 147 360 354 531
565 10 13 99 -35 99 -53 0 -58 -303 -408 -520 -601 -454 -403 -733 -590 -1327
-889 l-183 -91 -95 45 c-313 148 -739 405 -1010 610 -258 195 -627 535 -787
726 -71 84 -138 191 -138 219 0 14 50 40 75 40 13 0 46 -32 93 -87z m4341 58
c23 -6 41 -13 38 -16 -7 -7 -106 17 -113 28 -4 6 1 8 12 5 11 -3 39 -11 63
-17z m327 -15 c301 -52 729 -169 889 -244 49 -23 85 -44 82 -48 -8 -7 -147 46
-162 63 -5 6 -53 21 -105 34 -52 12 -133 34 -180 47 -47 13 -197 51 -335 84
-137 33 -263 63 -280 68 -48 14 -5 12 91 -4z m-5496 -24 c-8 -5 -84 -18 -169
-30 -84 -12 -190 -33 -235 -47 -95 -28 -337 -86 -342 -81 -6 5 219 73 351 106
167 42 440 77 395 52z m2037 -73 c-2 -13 -4 -3 -4 22 0 25 2 35 4 23 2 -13 2
-33 0 -45z m4239 27 c17 -13 16 -14 -13 -4 -34 11 -42 19 -20 19 7 0 22 -7 33
-15z m-731 -50 c87 -25 169 -45 182 -45 13 0 23 -4 23 -10 0 -5 10 -10 22 -10
12 0 19 -3 16 -6 -18 -17 -384 66 -404 92 -6 7 -17 14 -25 14 -8 0 -21 5 -29
11 -24 17 38 4 215 -46z m-1855 -46 c0 -17 -9 -32 -25 -43 -30 -20 -32 -20
-32 -1 0 8 9 15 19 15 19 0 21 6 19 55 -2 23 0 27 8 15 6 -8 11 -27 11 -41z
m-1651 -111 l-4 -123 30 2 c16 1 32 8 34 14 2 8 6 7 13 -2 7 -11 11 -11 15 -1
2 6 9 12 14 12 10 0 13 -153 3 -163 -4 -3 -33 17 -65 46 l-59 51 0 127 c0 118
4 159 17 159 3 0 4 -55 2 -122z m1545 40 c12 0 27 -1 33 -1 7 1 -4 -16 -25
-37 -45 -46 -52 -39 -51 55 1 70 1 70 12 28 7 -33 15 -43 31 -45z m1777 63
c68 -15 99 -29 98 -43 0 -10 -2 -10 -6 0 -2 6 -16 12 -30 12 -34 0 -131 29
-139 42 -4 6 1 8 12 4 11 -3 40 -10 65 -15z m1484 9 c8 -13 -5 -13 -25 0 -13
8 -13 10 2 10 9 0 20 -4 23 -10z m70 -30 c3 -6 -1 -7 -9 -4 -18 7 -21 14 -7
14 6 0 13 -4 16 -10z m-7330 -9 c-3 -6 10 -8 32 -6 l38 5 -40 -10 c-85 -21
-83 -21 -80 -2 2 9 4 17 4 17 14 6 50 2 46 -4z m2201 -28 l31 -23 14 28 14 27
3 -39 c2 -21 -1 -43 -5 -47 -5 -5 -32 13 -64 42 -54 52 -52 56 7 12z m3339 -1
c50 -17 126 -38 170 -47 138 -29 445 -114 445 -125 0 -4 6 -7 13 -7 37 -2 166
-27 267 -53 349 -90 388 -92 550 -31 101 38 130 45 235 52 118 9 180 5 170
-11 -7 -11 -108 -58 -200 -92 -142 -53 -163 -58 -214 -47 -25 5 -73 11 -106
13 -33 1 -121 16 -195 33 -74 17 -184 41 -245 53 -115 23 -388 91 -465 115
-25 8 -81 22 -125 31 -44 8 -120 29 -170 44 -49 16 -139 40 -200 53 -60 14
-126 32 -145 41 l-35 16 80 -4 c55 -3 108 -14 170 -34z m-5964 11 c-8 -3 -57
-23 -108 -43 -54 -22 -93 -33 -93 -26 0 10 36 26 145 63 31 11 82 16 56 6z
m1134 -54 c-66 -21 -160 -48 -210 -60 -105 -24 -263 -62 -495 -118 -198 -48
-426 -91 -482 -91 -58 0 -44 7 37 20 39 6 133 27 210 46 76 19 175 42 220 50
103 20 343 81 560 143 108 31 190 49 225 49 l55 0 -120 -39z m5771 16 c31 -8
60 -17 63 -21 9 -8 -68 7 -109 22 -48 17 -23 17 46 -1z m-6251 -15 c3 -5 3
-10 -1 -10 -4 0 -43 -7 -86 -16 -59 -12 -83 -13 -91 -5 -6 6 -7 11 -1 11 5 1
32 7 59 15 60 16 112 19 120 5z m-486 -20 c-9 -5 -34 -13 -57 -19 -35 -7 -42
-6 -42 6 0 9 6 13 13 10 8 -3 29 -2 48 3 47 11 57 11 38 0z m-109 -25 c0 -8
-7 -15 -15 -15 -16 0 -20 12 -8 23 11 12 23 8 23 -8z m6770 -15 c137 -35 363
-114 368 -129 4 -11 0 -12 -14 -6 -11 4 -37 11 -59 15 -22 4 -60 14 -85 23
-118 40 -243 77 -263 78 -12 0 -47 9 -77 19 l-55 18 35 3 c44 5 47 5 150 -21z
m-6830 8 c0 -9 4 -8 10 2 8 13 10 13 10 -1 0 -20 -169 -84 -183 -70 -18 18 2
38 50 50 26 7 59 16 73 20 36 13 40 12 40 -1z m2957 -10 c-3 -8 -6 -5 -6 6 -1
11 2 17 5 13 3 -3 4 -12 1 -19z m4174 1 c71 -31 54 -34 -22 -5 -35 14 -56 25
-46 26 10 0 41 -10 68 -21z m-1497 -14 c44 -13 120 -31 167 -39 121 -21 221
-47 239 -61 43 -36 141 -61 250 -63 71 -2 184 -23 170 -32 -9 -6 -5 -12 16
-23 38 -19 101 -30 108 -19 5 8 62 0 106 -16 23 -8 29 -9 48 -11 12 -1 14 -3
4 -9 -22 -14 77 -53 143 -56 66 -3 64 -2 185 -59 47 -22 101 -46 120 -52 19
-7 36 -18 38 -25 3 -8 0 -10 -7 -5 -7 4 -36 8 -64 10 -102 5 -467 88 -657 150
-58 18 -152 43 -210 54 -58 11 -148 31 -200 45 -145 39 -353 83 -468 100 -56
8 -107 18 -113 22 -20 12 9 114 32 114 6 0 48 -11 93 -25z m1626 -16 c0 -10
-12 -11 -34 -3 -25 10 -19 22 9 16 14 -2 25 -8 25 -13z m-5702 -36 c2 -23 -2
-32 -22 -41 -19 -8 -27 -8 -32 0 -4 6 -3 8 3 5 6 -4 13 5 15 22 3 20 0 27 -8
24 -8 -3 -11 2 -7 16 8 31 47 12 51 -26z m-1384 11 c4 -12 2 -15 -9 -10 -8 3
-15 2 -15 -3 0 -10 -72 -34 -173 -56 -60 -13 -81 -15 -90 -6 -9 9 -8 14 3 21
29 18 191 51 223 46 18 -3 26 -3 19 0 -6 3 -10 10 -6 15 9 15 41 10 48 -7z
m-864 -55 c58 -11 120 -18 149 -16 29 3 48 1 45 -4 -3 -5 1 -9 9 -9 24 0 140
-41 163 -58 24 -18 29 -38 16 -60 -15 -22 -247 44 -401 114 -30 14 -67 28 -82
31 -30 6 -40 23 -13 23 8 0 60 -9 114 -21z m1845 -10 c-43 -9 -111 -11 -104
-5 2 2 19 6 37 9 19 3 36 7 38 10 2 2 19 1 36 -2 l33 -5 -40 -7z m281 12 c-4
-5 0 -12 6 -14 7 -3 3 -6 -9 -6 -14 -1 -23 5 -23 14 0 8 7 15 16 15 8 0 13 -4
10 -9z m3294 -26 c-7 -9 -15 -13 -19 -10 -3 3 1 10 9 15 21 14 24 12 10 -5z
m-3540 -25 c0 -11 -6 -20 -12 -21 -7 0 -4 -4 6 -8 14 -5 -8 -14 -75 -29 -131
-30 -159 -33 -159 -21 0 16 26 39 44 39 9 0 16 7 16 15 0 34 23 44 103 45 70
0 77 -2 77 -20z m123 13 c-7 -2 -21 -2 -30 0 -10 3 -4 5 12 5 17 0 24 -2 18
-5z m3387 -7 c0 -2 -8 -10 -17 -17 -16 -13 -17 -12 -4 4 13 16 21 21 21 13z
m-3870 -45 c0 -5 -10 -12 -22 -14 -18 -3 -16 -5 8 -6 17 0 41 -10 54 -21 13
-11 28 -20 34 -21 13 -1 -132 -43 -216 -63 -46 -11 -58 -11 -62 0 -6 16 31 64
50 64 17 0 19 20 2 20 -25 1 17 18 57 23 22 3 41 9 42 14 4 12 53 15 53 4z
m1595 -1 c3 -6 -1 -7 -9 -4 -18 7 -21 14 -7 14 6 0 13 -4 16 -10z m36 -37 c13
-16 12 -17 -3 -4 -17 13 -22 21 -14 21 2 0 10 -8 17 -17z m2132 3 c4 -11 1
-13 -10 -9 -11 4 -14 2 -11 -8 6 -17 -77 -83 -92 -74 -6 4 -9 1 -8 -6 3 -11
-77 -73 -276 -214 -109 -78 -153 -78 -68 0 23 22 42 46 42 55 0 9 10 22 21 30
12 8 28 21 36 29 12 12 16 12 23 1 7 -11 11 -10 24 3 9 8 16 23 16 32 0 12 8
16 33 13 36 -3 75 21 54 34 -8 5 -4 8 11 8 12 0 22 5 22 11 0 16 41 50 51 43
5 -3 9 0 9 6 0 12 24 40 34 40 3 0 6 -6 6 -12 0 -7 11 -14 25 -14 14 -1 22 2
19 7 -5 9 15 38 27 39 4 0 9 -7 12 -14z m-2029 -82 c5 -14 4 -15 -9 -4 -17 14
-19 20 -6 20 5 0 12 -7 15 -16z m-1944 -18 c0 -2 -7 -7 -16 -10 -8 -3 -12 -2
-9 4 6 10 25 14 25 6z m-50 -16 c-8 -5 -24 -9 -35 -9 l-20 0 20 9 c11 5 27 9
35 9 13 1 13 0 0 -9z m-175 -40 c-2 -4 -17 -5 -32 -3 -19 3 -24 2 -15 -5 8 -6
-14 -15 -70 -27 -46 -10 -136 -36 -200 -57 -113 -36 -178 -47 -178 -30 0 5 15
22 33 38 35 31 97 45 218 48 51 1 65 4 61 15 -3 7 1 17 9 22 16 11 181 10 174
-1z m3825 -10 c-8 -5 -17 -7 -19 -4 -3 3 1 9 9 14 8 5 17 7 19 4 3 -3 -1 -9
-9 -14z m-1180 -256 c0 -2 -9 0 -20 6 -11 6 -20 13 -20 16 0 2 9 0 20 -6 11
-6 20 -13 20 -16z m1010 20 c0 -8 -19 -13 -24 -6 -3 5 1 9 9 9 8 0 15 -2 15
-3z m-60 -34 c-14 -10 -46 -30 -71 -43 -39 -20 -47 -21 -59 -9 -16 18 -2 28
55 38 22 3 51 12 65 20 35 19 39 17 10 -6z m-205 -79 c-3 -5 -1 -12 4 -15 5
-3 11 1 15 9 3 8 17 15 31 15 16 0 24 -4 20 -11 -4 -6 -13 -8 -21 -5 -8 3 -14
1 -14 -4 0 -10 -46 -36 -111 -63 -24 -10 -41 -12 -50 -6 -12 8 -11 9 1 8 19
-3 81 34 100 61 14 19 37 29 25 11z m-125 -97 c0 -6 -64 -34 -79 -34 -12 0
-10 5 8 19 20 15 71 26 71 15z"/>
<path d="M4955 9295 c-49 -19 -166 -55 -260 -81 -93 -25 -239 -68 -323 -95
-84 -27 -206 -62 -270 -80 -64 -17 -214 -60 -332 -96 -118 -36 -262 -79 -319
-95 -254 -70 -758 -237 -1251 -414 -58 -20 -151 -52 -208 -69 l-103 -32 2
-299 c1 -164 4 -568 8 -896 l6 -598 205 -3 205 -3 105 -43 105 -43 85 26 c47
14 119 35 160 47 41 11 80 27 86 34 5 7 28 15 50 17 32 2 40 7 42 27 2 13 23
49 47 79 24 31 41 60 38 65 -3 6 -2 7 4 4 6 -4 46 31 90 76 43 45 112 105 152
132 l74 50 811 -3 c446 -2 920 -5 1054 -7 l242 -4 0 39 c0 62 15 87 68 114 95
48 184 46 248 -5 l38 -30 191 4 c193 5 281 14 368 38 58 16 68 11 115 -57 l34
-49 544 -2 545 -3 37 -25 c20 -14 41 -25 46 -25 5 0 19 -8 30 -19 19 -17 45
-19 247 -24 l227 -5 3 201 c2 111 2 426 -1 701 l-5 498 -65 25 c-168 64 -981
334 -1395 463 -127 40 -495 149 -605 180 -143 40 -283 82 -565 170 -121 38
-281 84 -355 103 -74 19 -142 38 -150 40 -8 3 -55 -10 -105 -28z m235 -309
c98 -21 223 -73 290 -119 147 -104 277 -234 324 -325 14 -28 15 -36 4 -50 -11
-15 -11 -15 3 -5 13 11 18 9 27 -13 16 -34 17 -34 -25 -34 -28 0 -34 3 -23 10
8 5 12 10 8 10 -3 0 -13 3 -22 6 -13 5 -16 -3 -16 -49 0 -53 -1 -55 -30 -60
-16 -4 -30 -11 -30 -17 0 -6 5 -8 12 -4 7 5 8 3 3 -5 -5 -10 14 -12 83 -9 l91
3 11 -45 c17 -64 24 -194 13 -214 -8 -15 -14 -6 -33 46 -28 75 -37 88 -61 88
-12 0 -19 -7 -19 -20 0 -11 -7 -20 -15 -20 -18 0 -20 -16 -2 -23 6 -3 2 -6
-10 -6 -27 -1 -41 18 -22 30 11 7 11 9 -3 9 -12 0 -19 15 -27 53 -6 28 -25 95
-41 148 -27 86 -32 97 -62 110 -19 8 -43 32 -59 60 -23 40 -25 48 -13 64 19
26 18 104 0 111 -9 3 -27 -8 -44 -27 l-29 -32 -84 46 c-88 48 -183 77 -256 77
l-42 0 -3 48 -3 47 -57 3 c-55 3 -58 2 -58 -20 0 -57 -9 -66 -68 -73 -32 -4
-109 -20 -172 -36 -63 -15 -130 -30 -147 -31 -18 -1 -33 -6 -33 -10 0 -4 -7
-8 -16 -8 -14 0 -16 -8 -11 -54 l5 -53 -49 -49 c-27 -27 -53 -48 -57 -46 -3 2
-8 -2 -11 -9 -2 -7 1 -9 8 -5 16 10 15 10 -29 -93 -22 -50 -40 -99 -40 -107 0
-7 -4 -14 -8 -14 -5 0 -7 20 -6 45 2 25 -1 45 -7 45 -5 0 -9 9 -9 20 0 17 -7
20 -39 20 -22 0 -43 5 -46 10 -11 18 -23 11 -34 -20 -5 -16 -12 -30 -15 -30
-11 0 46 137 82 199 82 136 249 287 397 357 124 59 226 83 350 83 61 0 139 -6
175 -13z m688 -57 c37 -12 62 -26 62 -35 0 -8 -4 -14 -10 -14 -5 0 -10 -9 -10
-20 0 -13 -7 -20 -20 -20 -32 0 -26 -38 8 -43 20 -4 18 -4 -8 -3 -29 1 -34 4
-32 21 2 16 1 17 -7 6 -7 -11 -19 -5 -56 32 -29 30 -41 47 -31 47 31 0 15 20
-16 21 -28 0 -30 2 -13 9 18 8 18 9 -5 10 -23 1 -60 21 -60 32 0 8 127 -20
198 -43z m107 -39 c3 -5 2 -10 -4 -10 -5 0 -13 5 -16 10 -3 6 -2 10 4 10 5 0
13 -4 16 -10z m-1955 -30 c-8 -5 -19 -10 -25 -10 -5 0 -3 5 5 10 8 5 20 10 25
10 6 0 3 -5 -5 -10z m2086 -1 c48 -12 77 -45 50 -55 -9 -3 -28 -1 -43 4 -25 9
-26 10 -5 11 12 1 22 6 22 11 0 10 -16 14 -60 12 -20 0 -21 1 -5 5 l20 6 -20
8 c-30 11 -10 11 41 -2z m-1913 -38 c-19 -16 -85 -43 -170 -70 -76 -24 -178
-56 -228 -72 -49 -15 -119 -35 -155 -44 -36 -9 -117 -34 -180 -55 -63 -21
-167 -53 -230 -70 -142 -40 -303 -94 -900 -302 l-154 -54 3 -81 c1 -50 -1 -83
-8 -87 -6 -4 -11 -2 -11 3 0 6 -11 11 -25 11 -14 0 -25 5 -25 10 0 24 -28 7
-33 -20 -4 -16 -11 -30 -17 -30 -6 0 -10 48 -10 130 0 149 -6 140 90 149 13 1
13 2 0 12 -12 8 -8 9 15 7 17 -2 29 2 28 8 -3 14 121 56 141 48 11 -4 22 1 31
12 7 11 17 16 20 12 4 -4 14 0 22 8 9 8 22 13 30 10 8 -3 11 -2 8 4 -7 11 68
0 76 -12 3 -4 26 -5 52 -2 44 6 47 9 47 35 0 16 5 29 12 29 7 0 24 11 38 25
34 33 90 41 227 35 61 -3 110 -3 108 1 -2 3 11 5 29 5 19 0 41 8 50 17 10 9
24 17 32 17 10 0 13 7 8 24 -5 21 -1 24 32 30 20 4 40 3 43 -2 3 -5 27 -9 53
-8 25 0 41 4 36 7 -11 7 -4 10 70 29 25 6 42 17 42 25 0 8 5 15 10 15 6 0 10
7 10 15 0 9 9 15 25 15 14 0 28 -7 31 -15 4 -8 16 -15 28 -14 21 0 21 0 -1 9
-13 6 -23 18 -23 30 0 14 -7 20 -22 21 -22 1 -22 1 2 9 14 4 32 8 40 9 13 1
13 0 0 -9 -8 -5 -11 -12 -8 -15 9 -10 28 4 28 19 0 8 12 16 28 19 15 3 55 14
90 24 46 13 67 15 80 7 9 -6 26 -17 38 -24 17 -10 31 -9 82 6 52 15 62 22 62
41 0 27 10 34 62 40 23 2 50 9 59 14 18 9 89 -16 89 -31 0 -11 53 2 67 16 10
10 10 14 0 18 -6 3 -1 3 12 0 19 -5 23 -3 18 9 -4 12 -2 14 10 10 14 -5 11
-11 -14 -32z m2205 -51 c48 -15 72 -27 72 -37 0 -12 -3 -13 -14 -4 -11 9 -20
9 -35 2 -31 -17 -51 -13 -51 9 0 11 -6 20 -14 20 -8 0 -17 6 -20 13 -5 9 -7 9
-12 0 -4 -10 -9 -10 -20 1 -19 20 -18 28 4 22 9 -3 50 -15 90 -26z m-335 -4
c9 -5 29 -6 42 -4 15 3 25 1 25 -6 0 -10 124 -54 203 -72 15 -3 27 -10 27 -15
0 -5 -6 -7 -12 -4 -32 10 -220 65 -276 81 -35 9 -65 20 -67 24 -5 8 36 5 58
-4z m547 -62 c24 -7 24 -7 5 -15 -31 -12 -45 -10 -45 5 0 8 -6 17 -12 20 -15
7 15 1 52 -10z m-3220 -34 c0 -5 -4 -10 -10 -10 -5 0 -10 5 -10 10 0 6 5 10
10 10 6 0 10 -4 10 -10z m3026 1 c-17 -6 -16 -9 10 -18 16 -7 39 -15 52 -18
13 -4 21 -9 18 -12 -4 -5 -99 23 -120 35 -12 7 15 22 39 21 19 0 19 -1 1 -8z
m-3196 -45 c0 -2 -7 -7 -16 -10 -8 -3 -12 -2 -9 4 6 10 25 14 25 6z m3365 -16
c3 -5 17 -10 31 -10 14 0 34 -9 46 -20 28 -26 17 -25 -72 5 -88 30 -95 35 -47
35 20 0 39 -4 42 -10z m-1521 -147 c36 -128 49 -214 33 -210 -7 2 -47 -75 -47
-90 0 -2 20 11 44 30 l45 34 187 7 c102 4 188 5 190 3 3 -2 -23 -24 -57 -48
-34 -24 -92 -68 -128 -97 -36 -28 -78 -58 -93 -64 -32 -15 -32 -16 -17 -55 27
-67 99 -287 99 -301 0 -13 -4 -12 -22 5 -13 11 -63 49 -113 84 -49 35 -107 79
-127 97 l-37 34 -34 -35 c-19 -19 -72 -60 -118 -92 -46 -32 -96 -70 -111 -83
-15 -14 -30 -24 -32 -21 -2 2 18 78 45 169 27 91 49 168 49 172 0 4 -69 58
-152 120 -178 132 -185 122 75 116 l157 -3 9 30 c5 17 31 101 57 188 26 86 51
154 54 150 4 -5 24 -67 44 -140z m-326 85 c3 -27 -20 -54 -38 -43 -14 9 -13
48 2 63 18 18 33 9 36 -20z m2024 3 c-12 -7 -62 -4 -62 5 0 2 17 4 38 4 23 0
32 -3 24 -9z m358 -11 c11 -8 7 -9 -15 -4 -37 8 -45 14 -19 14 10 0 26 -5 34
-10z m-1050 -19 l25 -7 -30 -6 c-20 -4 -35 -2 -45 8 -12 12 -12 14 5 13 11 -1
31 -4 45 -8z m-2074 -87 l-23 -79 -171 0 c-160 0 -172 1 -186 20 -14 19 -12
21 46 43 60 23 182 57 228 65 14 2 32 6 40 10 8 3 26 8 38 10 23 5 24 3 18
-31 -5 -36 -5 -36 5 -7 6 17 13 36 15 44 2 8 7 12 9 9 3 -2 -6 -40 -19 -84z
m2912 70 c41 -20 41 -25 0 -12 -18 5 -38 10 -45 11 -13 0 -7 17 6 17 4 0 22
-7 39 -16z m-4053 -4 c-3 -5 -16 -10 -28 -9 -20 1 -20 2 3 9 14 4 26 8 28 9 2
1 0 -3 -3 -9z m3267 -2 c-20 -20 -15 -58 8 -58 11 0 20 5 20 10 0 6 9 10 20
10 13 0 20 -7 20 -20 0 -13 7 -20 20 -20 11 0 20 -5 20 -11 0 -6 6 -9 14 -6 9
4 16 -3 20 -19 5 -18 13 -24 33 -24 63 0 9 -8 -97 -15 l-116 -7 -17 55 c-20
63 -20 67 -6 67 5 0 7 -4 4 -10 -3 -5 1 -10 9 -10 10 0 16 9 16 25 0 14 5 25
11 25 5 0 7 5 4 10 -3 6 2 10 11 10 14 0 15 -3 6 -12z m68 -8 c20 -6 21 -8 5
-8 -11 0 -29 3 -40 8 -25 11 1 11 35 0z m815 -28 c-3 -3 -11 0 -18 7 -9 10 -8
11 6 5 10 -3 15 -9 12 -12z m45 14 c0 -2 -7 -6 -15 -10 -8 -3 -15 -1 -15 4 0
6 7 10 15 10 8 0 15 -2 15 -4z m17 -22 c-3 -3 -12 -4 -19 -1 -8 3 -5 6 6 6 11
1 17 -2 13 -5z m333 -4 c0 -5 -2 -10 -4 -10 -3 0 -8 5 -11 10 -3 6 -1 10 4 10
6 0 11 -4 11 -10z m-1546 -46 c4 -15 3 -31 -1 -35 -5 -5 -9 -1 -9 9 -1 9 -4
25 -9 35 -4 10 -3 17 3 17 5 0 13 -12 16 -26z m-3354 -24 c0 -5 -10 -10 -22
-9 -22 0 -22 1 -3 9 11 5 21 9 23 9 1 1 2 -3 2 -9z m5098 -15 c-3 -3 -9 2 -12
12 -6 14 -5 15 5 6 7 -7 10 -15 7 -18z m-291 9 c-3 -3 -12 -4 -19 -1 -8 3 -5
6 6 6 11 1 17 -2 13 -5z m-3127 -124 c8 12 10 10 10 -7 0 -17 6 -23 21 -23 15
0 19 -4 15 -16 -3 -9 -6 -29 -6 -45 0 -17 -5 -29 -13 -29 -10 0 -12 -16 -5
-72 9 -87 17 -123 25 -114 11 10 43 -47 43 -76 0 -21 5 -28 20 -28 13 0 20 7
20 20 0 11 5 20 10 20 6 0 10 5 10 11 0 5 -5 7 -11 3 -8 -5 -8 -1 0 14 6 12 7
22 2 24 -6 2 -6 17 -1 38 6 29 8 30 9 10 1 -14 10 -52 21 -84 17 -51 18 -62 7
-74 -19 -19 -94 -34 -129 -27 -29 7 -29 6 -18 -45 0 -3 7 4 15 14 8 11 18 16
22 11 5 -4 2 -10 -4 -12 -20 -7 -15 -21 8 -25 17 -2 25 -14 34 -50 11 -45 10
-52 -7 -49 -5 0 -8 -3 -8 -9 0 -18 38 -10 45 9 3 10 33 34 66 54 l60 36 40
-51 40 -51 -43 -41 c-44 -42 -76 -53 -85 -30 -3 8 -12 14 -20 14 -8 0 -11 -4
-8 -10 9 -15 -7 -11 -30 7 -16 13 -17 15 -2 10 11 -4 17 -1 17 8 0 17 -18 19
-38 6 -11 -6 -10 -11 3 -25 9 -9 12 -16 7 -16 -15 0 -93 111 -123 175 -73 154
-95 375 -54 540 l20 80 3 -55 c2 -38 6 -50 12 -40z m3527 84 c-3 -3 -12 -4
-19 -1 -8 3 -5 6 6 6 11 1 17 -2 13 -5z m-173 -26 c-5 -8 0 -9 15 -5 25 6 71
-10 71 -26 0 -5 9 -7 21 -4 12 3 18 3 15 -1 -7 -7 100 -52 124 -52 9 0 21 -5
27 -11 5 -5 31 -12 57 -15 l47 -5 -3 33 c-3 28 -7 33 -32 36 -22 3 -26 6 -15
13 10 6 5 9 -18 9 -23 0 -33 5 -33 15 0 20 7 19 71 -7 66 -27 67 -27 49 -38
-9 -6 -10 -10 -3 -10 6 0 14 4 17 9 3 5 22 3 43 -4 l38 -13 2 -119 3 -118 -20
25 c-11 15 -20 41 -20 63 0 26 -4 37 -15 37 -8 0 -15 4 -15 9 0 8 -50 28 -307
121 -129 47 -171 70 -127 70 9 0 12 -5 8 -12z m-4224 -49 c0 -10 4 -20 9 -23
5 -4 53 3 108 14 96 20 167 24 395 20 60 -1 112 2 118 5 12 7 13 -9 4 -54 l-7
-31 -417 2 c-276 2 -418 6 -417 13 1 5 -8 9 -20 7 -12 -2 -24 2 -27 7 -8 12
70 35 86 25 6 -4 8 -3 4 4 -4 7 15 15 51 22 32 6 63 12 68 14 21 6 45 -7 45
-25z m3145 6 c110 -4 209 -8 221 -10 16 -4 44 -41 44 -59 0 -1 -137 -4 -304
-5 l-303 -2 -7 32 c-12 63 -13 62 72 55 42 -3 167 -8 277 -11z m545 -36 c0 -5
4 -8 10 -4 9 6 80 -20 80 -29 0 -4 -42 -5 -92 -5 -51 1 -84 3 -73 6 33 7 65
25 59 35 -3 4 0 8 5 8 6 0 11 -5 11 -11z m-4205 -139 c20 -16 230 -17 221 -1
-14 22 143 26 579 14 l258 -6 11 -29 c6 -17 18 -28 31 -29 17 -1 16 -2 -5 -9
-30 -10 -684 -11 -1038 -1 -208 5 -254 9 -262 21 -12 19 -2 28 46 45 39 14
138 10 159 -5z m4192 -5 c27 -11 40 -22 36 -31 -3 -9 2 -14 13 -15 17 0 17 -1
-1 -8 -29 -12 -171 -15 -573 -13 l-353 2 3 38 3 37 225 6 c380 10 598 4 647
-16z m-1227 -60 c0 -8 7 -15 15 -15 21 0 35 -32 35 -80 0 -37 -3 -41 -30 -46
-21 -5 -30 -12 -30 -25 0 -11 -5 -19 -11 -19 -7 0 -5 -9 5 -24 l16 -25 -28 15
c-15 7 -32 14 -39 14 -19 0 -24 17 -12 47 6 15 15 53 21 83 5 30 14 63 19 72
12 22 39 24 39 3z m1463 8 c-13 -2 -35 -2 -50 0 -16 2 -5 4 22 4 28 0 40 -2
28 -4z m-4043 -108 c96 -3 191 -8 211 -11 21 -3 39 -2 42 3 7 11 328 10 345 0
10 -7 6 -15 -15 -35 -37 -35 -91 -38 -563 -41 -333 -1 -562 6 -800 27 -15 2
-20 9 -20 29 0 24 1 25 18 10 13 -12 29 -14 62 -10 25 3 47 10 50 14 3 4 28
12 55 18 47 9 148 9 615 -4z m4393 -20 c23 -9 53 -22 67 -28 l25 -10 -35 -10
c-42 -11 -1292 -22 -1437 -12 -109 7 -112 9 -94 57 l9 24 712 -2 c649 -2 715
-3 753 -19z m114 -30 c0 -8 -4 -12 -9 -9 -5 3 -6 10 -3 15 9 13 12 11 12 -6z
m-5618 -177 c-2 -102 -2 -102 -11 -45 -9 51 -4 147 8 147 2 0 3 -46 3 -102z
m4088 52 c606 -6 1122 -5 1284 3 113 5 217 7 231 4 21 -6 27 -14 30 -45 l3
-39 -391 -6 c-565 -8 -1274 2 -1274 19 0 7 9 29 21 48 17 29 24 34 39 26 10
-5 35 -10 57 -10z m-2200 -11 c15 1 28 -9 38 -29 9 -17 14 -34 11 -38 -2 -4
-365 -7 -805 -7 -600 0 -803 3 -812 12 -7 7 -9 22 -5 38 6 22 9 25 22 14 11
-9 23 -9 52 0 27 9 173 10 562 6 689 -7 769 -7 805 5 17 5 48 7 70 4 22 -3 50
-5 62 -5z m1784 -81 c39 -22 47 -38 30 -61 -46 -58 -85 -96 -94 -90 -5 3 -7 1
-4 -4 4 -6 0 -16 -9 -23 -12 -11 -17 -11 -27 0 -9 10 -9 13 0 17 16 6 -8 33
-29 33 -16 0 -41 28 -62 68 -14 28 -14 30 15 51 23 17 29 19 29 6 0 -8 9 -15
20 -15 11 0 20 5 20 10 0 6 9 10 20 10 11 0 20 5 20 10 0 16 30 11 71 -12z
m594 -99 c94 -8 152 -8 208 0 44 6 229 11 422 11 l343 0 -5 -32 c-3 -18 -6
-35 -8 -36 -11 -11 -581 -18 -925 -11 -223 4 -408 8 -413 8 -4 1 1 18 12 39
l19 37 108 -2 c60 -2 168 -8 239 -14z m-3512 5 c150 -6 167 -9 167 -25 0 -12
-11 -19 -42 -25 -43 -8 -43 -8 -13 -15 17 -3 -99 -7 -257 -8 -158 0 -289 2
-291 7 -3 4 -2 21 0 39 l5 31 132 2 c72 0 206 -2 299 -6z m260 -11 c-13 -2
-33 -2 -45 0 -13 2 -3 4 22 4 25 0 35 -2 23 -4z m991 -18 c9 -14 14 -30 11
-35 -4 -6 -201 -9 -533 -8 -290 1 -493 4 -452 7 48 4 66 9 50 12 -15 4 -4 6
30 7 41 0 49 -2 30 -8 -16 -5 8 -8 70 -8 62 0 86 3 70 8 -20 6 -14 8 27 9 28
1 53 6 55 11 6 19 122 28 374 29 l252 1 16 -25z m587 -35 c34 -22 67 -40 72
-40 17 0 -2 -14 -24 -17 -12 -2 -18 1 -14 7 3 5 -1 10 -10 10 -9 0 -14 -4 -11
-9 8 -12 -13 -18 -42 -13 -18 3 -20 7 -10 13 9 6 3 10 -19 15 -18 4 -33 10
-33 15 0 13 19 59 24 59 3 0 33 -18 67 -40z m-277 12 c3 -5 -1 -9 -9 -9 -8 0
-12 4 -9 9 3 4 7 8 9 8 2 0 6 -4 9 -8z m1019 -96 c22 -22 107 -22 107 0 0 8 5
12 10 9 6 -4 7 -11 4 -17 -5 -7 2 -9 21 -4 l28 7 -31 -26 c-40 -33 -151 -84
-277 -126 -95 -32 -107 -34 -245 -34 -88 0 -162 6 -189 13 -23 8 -41 15 -40
17 2 2 49 8 104 14 55 7 102 16 103 21 2 6 16 10 32 10 52 0 60 8 60 60 0 52
10 60 74 60 33 0 82 14 140 41 21 10 44 15 52 12 8 -3 14 1 15 8 1 8 4 0 9
-18 4 -17 14 -39 23 -47z m-465 -2 c21 -4 22 -9 20 -59 -2 -29 -4 -52 -6 -50
-2 2 -2 5 0 7 2 3 -103 103 -119 112 -4 3 84 -5 105 -10z m-2155 -21 c-7 -2
-19 -2 -25 0 -7 3 -2 5 12 5 14 0 19 -2 13 -5z m840 0 c-18 -2 -33 -8 -33 -14
0 -16 -97 -11 -104 6 -4 13 8 15 82 13 48 0 72 -3 55 -5z m902 -3 c3 -6 -1 -7
-9 -4 -18 7 -21 14 -7 14 6 0 13 -4 16 -10z m1828 -2 c49 -9 66 -17 74 -34 8
-18 7 -24 -4 -29 -21 -8 -491 -7 -531 1 -42 8 -48 19 -28 49 l16 25 205 0
c118 0 233 -5 268 -12z m766 -4 c2 -2 -61 -5 -140 -6 -135 -1 -138 -2 -52 -7
85 -6 114 -13 101 -26 -3 -3 -54 -8 -114 -12 -133 -7 -393 5 -373 18 8 5 30 7
50 3 22 -3 40 -1 44 5 4 7 -13 11 -53 11 -82 0 -157 11 -141 21 12 7 669 0
678 -7z m-4697 -6 c7 -7 38 -15 68 -16 59 -4 92 -20 68 -33 -7 -4 -51 -10 -96
-14 l-84 -8 3 34 c4 53 14 61 41 37z m1376 5 c-10 -2 -26 -2 -35 0 -10 3 -2 5
17 5 19 0 27 -2 18 -5z m345 -10 c-20 -55 -33 -63 -101 -63 -72 0 -211 22
-174 28 12 2 22 7 22 11 0 4 15 7 33 7 78 0 200 13 210 23 15 15 17 14 10 -6z
m-390 -150 l-33 -4 15 -30 c18 -33 26 -30 -91 -35 -49 -2 -96 2 -119 10 l-39
14 42 7 c23 4 42 10 42 14 0 5 32 6 70 4 42 -2 70 0 70 6 0 6 -40 12 -92 14
-70 2 -61 3 37 3 72 1 115 -1 98 -3z m-1235 -19 c100 -9 98 -30 -5 -39 -43 -3
-90 -9 -105 -11 -25 -5 -28 -3 -28 24 0 37 9 45 40 38 14 -3 58 -9 98 -12z
m1542 -7 c0 -7 -6 -22 -14 -33 -14 -18 -15 -18 -24 6 -7 20 -6 26 7 32 25 10
31 9 31 -5z m-1637 -172 l17 -35 -30 0 c-31 0 -38 17 -24 54 9 24 19 19 37
-19z"/>
<path d="M4260 8490 c0 -5 4 -10 9 -10 6 0 13 5 16 10 3 6 -1 10 -9 10 -9 0
-16 -4 -16 -10z"/>
<path d="M5746 8215 c-3 -8 -1 -15 4 -15 6 0 10 7 10 15 0 8 -2 15 -4 15 -2 0
-6 -7 -10 -15z"/>
<path d="M5812 8868 c6 -18 28 -21 28 -4 0 9 -7 16 -16 16 -9 0 -14 -5 -12
-12z"/>
<path d="M2698 8443 c7 -3 16 -2 19 1 4 3 -2 6 -13 5 -11 0 -14 -3 -6 -6z"/>
<path d="M4780 8120 c0 -10 51 -50 87 -69 19 -9 30 -8 59 7 43 22 41 24 -51
46 -38 9 -76 19 -82 21 -7 2 -13 0 -13 -5z"/>
<path d="M5175 8099 c-143 -34 -146 -35 -205 -110 -56 -72 -110 -156 -110
-174 0 -5 21 11 48 36 26 25 64 58 86 73 l38 29 35 -20 c19 -11 62 -44 95 -73
67 -59 67 -57 21 55 -41 99 -41 100 10 132 25 15 63 38 84 50 l38 22 -30 0
c-16 0 -66 -9 -110 -20z"/>
<path d="M4296 7598 c3 -5 10 -6 15 -3 13 9 11 12 -6 12 -8 0 -12 -4 -9 -9z"/>
<path d="M3608 7873 c6 -2 18 -2 25 0 6 3 1 5 -13 5 -14 0 -19 -2 -12 -5z"/>
<path d="M5304 7425 c-4 -9 -16 -12 -40 -8 -23 4 -34 2 -34 -7 0 -7 -7 -10
-15 -6 -19 7 -21 -39 -2 -48 10 -5 10 -7 0 -12 -26 -12 -12 -24 27 -24 33 0
40 3 40 20 0 17 7 20 53 20 33 0 47 3 38 9 -8 5 -12 20 -9 37 3 26 1 29 -25
31 -16 1 -30 -3 -33 -12z"/>
<path d="M2528 7333 c6 -2 18 -2 25 0 6 3 1 5 -13 5 -14 0 -19 -2 -12 -5z"/>
<path d="M957 7324 c-4 -4 -7 -16 -7 -26 0 -13 7 -18 26 -18 21 0 25 4 22 22
-3 23 -27 35 -41 22z"/>
<path d="M3714 6245 c-9 -22 22 -53 37 -38 15 15 7 47 -14 51 -9 2 -20 -4 -23
-13z"/>
<path d="M8527 5684 c-4 -4 -7 -25 -7 -46 0 -27 4 -38 15 -38 9 0 15 9 14 23
-2 35 -13 69 -22 61z"/>
<path d="M1640 4636 c0 -15 7 -27 19 -31 28 -9 51 5 51 31 0 21 -5 24 -35 24
-30 0 -35 -3 -35 -24z"/>
<path d="M6068 4100 c-3 -19 -15 -96 -27 -170 -11 -74 -32 -206 -47 -293 -14
-87 -24 -160 -22 -161 1 -2 47 -6 101 -8 l97 -5 0 26 c0 33 -24 186 -50 316
-11 55 -26 152 -33 215 -10 85 -15 106 -19 80z"/>
<path d="M7780 3991 c-11 -21 -12 -359 -1 -746 l6 -230 95 -27 c52 -15 105
-28 118 -28 l22 0 -2 492 -3 492 -105 33 c-58 18 -108 33 -112 33 -4 0 -12 -9
-18 -19z"/>
<path d="M1431 3610 c-4 -12 -42 -237 -65 -380 -26 -168 -36 -260 -28 -260 3
0 48 12 99 27 82 24 92 29 88 47 -2 12 -9 57 -15 101 -6 44 -20 125 -31 180
-10 55 -25 143 -33 195 -8 52 -15 93 -15 90z"/>
<path d="M5328 2413 c-3 -16 -4 -89 -2 -163 1 -74 3 -152 3 -172 1 -37 2 -38
40 -38 l38 0 6 53 c5 56 -4 77 -34 77 -11 0 -19 7 -19 15 0 8 5 15 10 15 6 0
10 9 10 20 0 11 -4 20 -10 20 -5 0 -10 18 -10 40 0 33 3 40 20 40 17 0 20 7
20 40 0 33 -3 40 -17 38 -12 -2 -19 4 -21 20 -5 31 -29 28 -34 -5z"/>
<path d="M1818 1663 c7 -3 16 -2 19 1 4 3 -2 6 -13 5 -11 0 -14 -3 -6 -6z"/>
</g>
</svg>
